<?xml version="1.0" encoding="utf-8"?>
<!-- Generator: Adobe Illustrator 15.0.0, SVG Export Plug-In . SVG Version: 6.00 Build 0)  -->
<!DOCTYPE svg PUBLIC "-//W3C//DTD SVG 1.1//EN" "http://www.w3.org/Graphics/SVG/1.1/DTD/svg11.dtd">
<svg version="1.1" id="Layer_1" xmlns="http://www.w3.org/2000/svg" xmlns:xlink="http://www.w3.org/1999/xlink" x="0px" y="0px"
	 width="26px" height="26px" viewBox="0 0 26 26" enable-background="new 0 0 26 26" xml:space="preserve">
<g>
	<path d="M20.26,5.696H5.928c-0.609,0-1.104,0.497-1.104,1.111v10.179c0,0.614,0.495,1.111,1.104,1.111h5.498
		c0,0-0.965,2.223-3.612,2.223v0.556h1.945h4.724h3.612V20.32c-2.72,0-3.335-2.223-3.335-2.223h5.501
		c0.608,0,1.102-0.497,1.102-1.111V6.807C21.361,6.193,20.868,5.696,20.26,5.696z M20.18,16.296H6.006V6.877H20.18V16.296z"/>
	<polygon points="11.979,13.426 9.327,11.581 9.327,11.558 11.979,9.713 11.979,8.484 8.473,11.071 8.473,12.069 11.979,14.656 	"/>
	<polygon points="17.813,11.036 14.307,8.484 14.307,9.713 17.018,11.558 17.018,11.581 14.307,13.426 14.307,14.656 17.813,12.103 
			"/>
</g>
</svg>
